<mxfile host="65bd71144e">
    <diagram id="ygJa8LKhD-JKV2qi45nE" name="Page-1">
        <mxGraphModel dx="886" dy="774" grid="0" gridSize="10" guides="1" tooltips="1" connect="1" arrows="1" fold="1" page="0" pageScale="1" pageWidth="850" pageHeight="1100" math="0" shadow="0">
            <root>
                <mxCell id="0"/>
                <mxCell id="1" parent="0"/>
                <mxCell id="vAmtrZHscYTu-8P-I5EJ-42" value="AWS Cloud" style="points=[[0,0],[0.25,0],[0.5,0],[0.75,0],[1,0],[1,0.25],[1,0.5],[1,0.75],[1,1],[0.75,1],[0.5,1],[0.25,1],[0,1],[0,0.75],[0,0.5],[0,0.25]];outlineConnect=0;gradientColor=none;html=1;whiteSpace=wrap;fontSize=12;fontStyle=0;shape=mxgraph.aws4.group;grIcon=mxgraph.aws4.group_aws_cloud_alt;strokeColor=#232F3E;fillColor=none;verticalAlign=top;align=left;spacingLeft=30;fontColor=#232F3E;dashed=0;" parent="1" vertex="1">
                    <mxGeometry x="20" y="180" width="750" height="610" as="geometry"/>
                </mxCell>
                <mxCell id="vAmtrZHscYTu-8P-I5EJ-1" value="VPC" style="points=[[0,0],[0.25,0],[0.5,0],[0.75,0],[1,0],[1,0.25],[1,0.5],[1,0.75],[1,1],[0.75,1],[0.5,1],[0.25,1],[0,1],[0,0.75],[0,0.5],[0,0.25]];outlineConnect=0;gradientColor=none;html=1;whiteSpace=wrap;fontSize=12;fontStyle=0;shape=mxgraph.aws4.group;grIcon=mxgraph.aws4.group_vpc;strokeColor=#248814;fillColor=none;verticalAlign=top;align=left;spacingLeft=30;fontColor=#AAB7B8;dashed=0;" parent="1" vertex="1">
                    <mxGeometry x="50" y="220" width="540" height="550" as="geometry"/>
                </mxCell>
                <mxCell id="vAmtrZHscYTu-8P-I5EJ-2" value="Availability Zone 1" style="fillColor=none;strokeColor=#147EBA;dashed=1;verticalAlign=top;fontStyle=0;fontColor=#147EBA;" parent="1" vertex="1">
                    <mxGeometry x="70" y="260" width="190" height="490" as="geometry"/>
                </mxCell>
                <mxCell id="vAmtrZHscYTu-8P-I5EJ-3" value="Availability Zone 2 (or more)" style="fillColor=none;strokeColor=#147EBA;dashed=1;verticalAlign=top;fontStyle=0;fontColor=#147EBA;" parent="1" vertex="1">
                    <mxGeometry x="380" y="260" width="190" height="490" as="geometry"/>
                </mxCell>
                <mxCell id="vAmtrZHscYTu-8P-I5EJ-4" value="Public subnet" style="points=[[0,0],[0.25,0],[0.5,0],[0.75,0],[1,0],[1,0.25],[1,0.5],[1,0.75],[1,1],[0.75,1],[0.5,1],[0.25,1],[0,1],[0,0.75],[0,0.5],[0,0.25]];outlineConnect=0;gradientColor=none;html=1;whiteSpace=wrap;fontSize=12;fontStyle=0;shape=mxgraph.aws4.group;grIcon=mxgraph.aws4.group_security_group;grStroke=0;strokeColor=#248814;fillColor=#E9F3E6;verticalAlign=top;align=left;spacingLeft=30;fontColor=#248814;dashed=0;" parent="1" vertex="1">
                    <mxGeometry x="90" y="290" width="150" height="140" as="geometry"/>
                </mxCell>
                <mxCell id="vAmtrZHscYTu-8P-I5EJ-5" value="Public subnet" style="points=[[0,0],[0.25,0],[0.5,0],[0.75,0],[1,0],[1,0.25],[1,0.5],[1,0.75],[1,1],[0.75,1],[0.5,1],[0.25,1],[0,1],[0,0.75],[0,0.5],[0,0.25]];outlineConnect=0;gradientColor=none;html=1;whiteSpace=wrap;fontSize=12;fontStyle=0;shape=mxgraph.aws4.group;grIcon=mxgraph.aws4.group_security_group;grStroke=0;strokeColor=#248814;fillColor=#E9F3E6;verticalAlign=top;align=left;spacingLeft=30;fontColor=#248814;dashed=0;" parent="1" vertex="1">
                    <mxGeometry x="400" y="290" width="150" height="140" as="geometry"/>
                </mxCell>
                <mxCell id="vAmtrZHscYTu-8P-I5EJ-6" value="Private subnet" style="points=[[0,0],[0.25,0],[0.5,0],[0.75,0],[1,0],[1,0.25],[1,0.5],[1,0.75],[1,1],[0.75,1],[0.5,1],[0.25,1],[0,1],[0,0.75],[0,0.5],[0,0.25]];outlineConnect=0;gradientColor=none;html=1;whiteSpace=wrap;fontSize=12;fontStyle=0;shape=mxgraph.aws4.group;grIcon=mxgraph.aws4.group_security_group;grStroke=0;strokeColor=#147EBA;fillColor=#E6F2F8;verticalAlign=top;align=left;spacingLeft=30;fontColor=#147EBA;dashed=0;" parent="1" vertex="1">
                    <mxGeometry x="90" y="440" width="150" height="300" as="geometry"/>
                </mxCell>
                <mxCell id="vAmtrZHscYTu-8P-I5EJ-7" value="Private subnet" style="points=[[0,0],[0.25,0],[0.5,0],[0.75,0],[1,0],[1,0.25],[1,0.5],[1,0.75],[1,1],[0.75,1],[0.5,1],[0.25,1],[0,1],[0,0.75],[0,0.5],[0,0.25]];outlineConnect=0;gradientColor=none;html=1;whiteSpace=wrap;fontSize=12;fontStyle=0;shape=mxgraph.aws4.group;grIcon=mxgraph.aws4.group_security_group;grStroke=0;strokeColor=#147EBA;fillColor=#E6F2F8;verticalAlign=top;align=left;spacingLeft=30;fontColor=#147EBA;dashed=0;" parent="1" vertex="1">
                    <mxGeometry x="400" y="440" width="150" height="300" as="geometry"/>
                </mxCell>
                <mxCell id="vAmtrZHscYTu-8P-I5EJ-22" value="ECS AutoScaling" style="points=[[0,0],[0.25,0],[0.5,0],[0.75,0],[1,0],[1,0.25],[1,0.5],[1,0.75],[1,1],[0.75,1],[0.5,1],[0.25,1],[0,1],[0,0.75],[0,0.5],[0,0.25]];outlineConnect=0;gradientColor=none;html=1;whiteSpace=wrap;fontSize=12;fontStyle=0;shape=mxgraph.aws4.groupCenter;grIcon=mxgraph.aws4.group_auto_scaling_group;grStroke=1;strokeColor=#D86613;fillColor=none;verticalAlign=top;align=center;fontColor=#D86613;dashed=1;spacingTop=25;" parent="1" vertex="1">
                    <mxGeometry x="120" y="470" width="400" height="120" as="geometry"/>
                </mxCell>
                <mxCell id="vAmtrZHscYTu-8P-I5EJ-20" value="AWS Fargate&lt;br&gt;tasks" style="outlineConnect=0;fontColor=#232F3E;gradientColor=none;fillColor=#D86613;strokeColor=none;dashed=0;verticalLabelPosition=bottom;verticalAlign=top;align=center;html=1;fontSize=12;fontStyle=0;aspect=fixed;pointerEvents=1;shape=mxgraph.aws4.instances;" parent="1" vertex="1">
                    <mxGeometry x="160" y="500" width="48" height="48" as="geometry"/>
                </mxCell>
                <mxCell id="vAmtrZHscYTu-8P-I5EJ-21" value="AWS Fargate&lt;br&gt;tasks" style="outlineConnect=0;fontColor=#232F3E;gradientColor=none;fillColor=#D86613;strokeColor=none;dashed=0;verticalLabelPosition=bottom;verticalAlign=top;align=center;html=1;fontSize=12;fontStyle=0;aspect=fixed;pointerEvents=1;shape=mxgraph.aws4.instances;" parent="1" vertex="1">
                    <mxGeometry x="444" y="500" width="48" height="48" as="geometry"/>
                </mxCell>
                <mxCell id="vAmtrZHscYTu-8P-I5EJ-28" value="Amazon Route53 &lt;br&gt;Hosted zone" style="outlineConnect=0;fontColor=#232F3E;gradientColor=#945DF2;gradientDirection=north;fillColor=#5A30B5;strokeColor=#ffffff;dashed=0;verticalLabelPosition=bottom;verticalAlign=top;align=center;html=1;fontSize=12;fontStyle=0;aspect=fixed;shape=mxgraph.aws4.resourceIcon;resIcon=mxgraph.aws4.route_53;" parent="1" vertex="1">
                    <mxGeometry x="655.69" y="220" width="58" height="58" as="geometry"/>
                </mxCell>
                <mxCell id="vAmtrZHscYTu-8P-I5EJ-29" value="AWS Certificate Manager&lt;br&gt;SSL certificate" style="outlineConnect=0;fontColor=#232F3E;gradientColor=#F54749;gradientDirection=north;fillColor=#C7131F;strokeColor=#ffffff;dashed=0;verticalLabelPosition=bottom;verticalAlign=top;align=center;html=1;fontSize=12;fontStyle=0;aspect=fixed;shape=mxgraph.aws4.resourceIcon;resIcon=mxgraph.aws4.certificate_manager_3;" parent="1" vertex="1">
                    <mxGeometry x="655.69" y="330" width="58" height="58" as="geometry"/>
                </mxCell>
                <mxCell id="2" value="Amazon CloudWatch&lt;br&gt;Container Insights" style="outlineConnect=0;fontColor=#232F3E;gradientColor=#F34482;gradientDirection=north;fillColor=#BC1356;strokeColor=#ffffff;dashed=0;verticalLabelPosition=bottom;verticalAlign=top;align=center;html=1;fontSize=12;fontStyle=0;aspect=fixed;shape=mxgraph.aws4.resourceIcon;resIcon=mxgraph.aws4.cloudwatch;" parent="1" vertex="1">
                    <mxGeometry x="655.69" y="440" width="58" height="58" as="geometry"/>
                </mxCell>
                <mxCell id="6" value="Opensearch cluster" style="fillColor=none;strokeColor=#5A6C86;dashed=1;verticalAlign=top;fontStyle=0;fontColor=#5A6C86;" parent="1" vertex="1">
                    <mxGeometry x="120" y="600" width="400" height="120" as="geometry"/>
                </mxCell>
                <mxCell id="27" value="Amazon CloudWatch&#10;Logs and Metrics" style="shape=image;verticalLabelPosition=bottom;labelBackgroundColor=none;verticalAlign=top;aspect=fixed;imageAspect=0;image=data:image/svg+xml,PHN2ZyB4bWxucz0iaHR0cDovL3d3dy53My5vcmcvMjAwMC9zdmciIHhtbG5zOnhsaW5rPSJodHRwOi8vd3d3LnczLm9yZy8xOTk5L3hsaW5rIiB3aWR0aD0iNjRweCIgaGVpZ2h0PSI2NHB4IiB2aWV3Qm94PSIwIDAgNjQgNjQiIHZlcnNpb249IjEuMSI+JiN4YTsgICAgPCEtLSBHZW5lcmF0b3I6IFNrZXRjaCA2NCAoOTM1MzcpIC0gaHR0cHM6Ly9za2V0Y2guY29tIC0tPiYjeGE7ICAgIDx0aXRsZT5JY29uLUFyY2hpdGVjdHVyZS80OC9BcmNoX0FtYXpvbi1DbG91ZFdhdGNoXzQ4PC90aXRsZT4mI3hhOyAgICA8ZGVzYz5DcmVhdGVkIHdpdGggU2tldGNoLjwvZGVzYz4mI3hhOyAgICA8ZGVmcz4mI3hhOyAgICAgICAgPGxpbmVhckdyYWRpZW50IHgxPSIwJSIgeTE9IjEwMCUiIHgyPSIxMDAlIiB5Mj0iMCUiIGlkPSJsaW5lYXJHcmFkaWVudC0xIj4mI3hhOyAgICAgICAgICAgIDxzdG9wIHN0b3AtY29sb3I9IiNCMDA4NEQiIG9mZnNldD0iMCUiLz4mI3hhOyAgICAgICAgICAgIDxzdG9wIHN0b3AtY29sb3I9IiNGRjRGOEIiIG9mZnNldD0iMTAwJSIvPiYjeGE7ICAgICAgICA8L2xpbmVhckdyYWRpZW50PiYjeGE7ICAgIDwvZGVmcz4mI3hhOyAgICA8ZyBpZD0iSWNvbi1BcmNoaXRlY3R1cmUvNDgvQXJjaF9BbWF6b24tQ2xvdWRXYXRjaF80OCIgc3Ryb2tlPSJub25lIiBzdHJva2Utd2lkdGg9IjEiIGZpbGw9Im5vbmUiIGZpbGwtcnVsZT0iZXZlbm9kZCI+JiN4YTsgICAgICAgIDxnIGlkPSJJY29uLUFyY2hpdGVjdHVyZS1CRy80OC9NYW5hZ2VtZW50LUdvdmVybmFuY2UiIGZpbGw9InVybCgjbGluZWFyR3JhZGllbnQtMSkiPiYjeGE7ICAgICAgICAgICAgPHJlY3QgaWQ9IlJlY3RhbmdsZSIgeD0iMCIgeT0iMCIgd2lkdGg9IjY0IiBoZWlnaHQ9IjY0Ii8+JiN4YTsgICAgICAgIDwvZz4mI3hhOyAgICAgICAgPHBhdGggZD0iTTQyLjE4NCwzOS4zODExMjE2IEM0Mi4xODQsMzcuMTI4MjY5OCA0MC4zNDcsMzUuMjk1NDU4MSAzOC4wODksMzUuMjk1NDU4MSBDMzUuODMxLDM1LjI5NTQ1ODEgMzMuOTk1LDM3LjEyODI2OTggMzMuOTk1LDM5LjM4MTEyMTYgQzMzLjk5NSw0MS42MzM5NzM1IDM1LjgzMSw0My40NjY3ODUyIDM4LjA4OSw0My40NjY3ODUyIEM0MC4zNDcsNDMuNDY2Nzg1MiA0Mi4xODQsNDEuNjMzOTczNSA0Mi4xODQsMzkuMzgxMTIxNiBMNDIuMTg0LDM5LjM4MTEyMTYgWiBNNDQuMTg0LDM5LjM4MTEyMTYgQzQ0LjE4NCw0Mi43MzQ0NTg3IDQxLjQ1LDQ1LjQ2MjIyNTIgMzguMDg5LDQ1LjQ2MjIyNTIgQzM0LjcyOSw0NS40NjIyMjUyIDMxLjk5NSw0Mi43MzQ0NTg3IDMxLjk5NSwzOS4zODExMjE2IEMzMS45OTUsMzYuMDI3Nzg0NiAzNC43MjksMzMuMzAwMDE4MSAzOC4wODksMzMuMzAwMDE4MSBDNDEuNDUsMzMuMzAwMDE4MSA0NC4xODQsMzYuMDI3Nzg0NiA0NC4xODQsMzkuMzgxMTIxNiBMNDQuMTg0LDM5LjM4MTEyMTYgWiBNNTAuNzQzLDQ5LjYxNTczMzcgTDQ1Ljg0Niw0NS4yMTU3ODg0IEM0NS41MjQsNDUuNjM5ODE5NCA0NS4xNyw0Ni4wMzc5MDk3IDQ0Ljc4NSw0Ni40MDUwNzA2IEw0OS42NzEsNTAuODAzMDIwNSBDNDkuOTk3LDUxLjA5NTM1MjUgNTAuNTA1LDUxLjA3MTQwNzIgNTAuODAyLDUwLjc0NDE1NSBDNTEuMDk2LDUwLjQxNzkwMDYgNTEuMDcsNDkuOTExMDU4OCA1MC43NDMsNDkuNjE1NzMzNyBMNTAuNzQzLDQ5LjYxNTczMzcgWiBNMzguMDg5LDQ3LjA5MTUwMiBDNDIuMzUxLDQ3LjA5MTUwMiA0NS44MTgsNDMuNjMyNDA2NyA0NS44MTgsMzkuMzgxMTIxNiBDNDUuODE4LDM1LjEyOTgzNjYgNDIuMzUxLDMxLjY3MDc0MTMgMzguMDg5LDMxLjY3MDc0MTMgQzMzLjgyOSwzMS42NzA3NDEzIDMwLjM2MiwzNS4xMjk4MzY2IDMwLjM2MiwzOS4zODExMjE2IEMzMC4zNjIsNDMuNjMyNDA2NyAzMy44MjksNDcuMDkxNTAyIDM4LjA4OSw0Ny4wOTE1MDIgTDM4LjA4OSw0Ny4wOTE1MDIgWiBNNTIuMDgxLDQ4LjEzNDExOTQgQzUzLjIyNyw0OS4xNjY3NTk3IDUzLjMxOSw1MC45MzU3MTczIDUyLjI4OCw1Mi4wODAxMDIxIEM1MS43MzUsNTIuNjg5NzA5MSA1MC45NzEsNTMgNTAuMjA1LDUzIEM0OS41MzgsNTMgNDguODY4LDUyLjc2NTUzNTggNDguMzMzLDUyLjI4NjYzMDIgTDQzLjE3Miw0Ny42NDEyNDU3IEM0MS42OTEsNDguNTUyMTY0MSAzOS45NTQsNDkuMDg2OTQyMSAzOC4wODksNDkuMDg2OTQyMSBDMzIuNzI1LDQ5LjA4Njk0MjEgMjguMzYyLDQ0LjczMjg5MTkgMjguMzYyLDM5LjM4MTEyMTYgQzI4LjM2MiwzNC4wMjkzNTE0IDMyLjcyNSwyOS42NzUzMDEyIDM4LjA4OSwyOS42NzUzMDEyIEM0My40NTQsMjkuNjc1MzAxMiA0Ny44MTgsMzQuMDI5MzUxNCA0Ny44MTgsMzkuMzgxMTIxNiBDNDcuODE4LDQwLjg0NDc3NjkgNDcuNDgyLDQyLjIyODYxNDYgNDYuODk3LDQzLjQ3NTc2NDYgTDUyLjA4MSw0OC4xMzQxMTk0IFogTTE3LjY5NywyMy41MzgzMjU0IEMxNy42OTcsMjMuOTM5NDA4OCAxNy43MiwyNC4zMzg0OTY4IDE3Ljc2NywyNC43MjI2MTkgQzE3LjgwMiwyNS4wMDU5NzE1IDE3LjcxMywyNS4yOTEzMTk0IDE3LjUyNCwyNS41MDQ4MzE1IEMxNy4zNzUsMjUuNjcxNDUwOCAxNy4xNzcsMjUuNzgzMTk1NCAxNi45NjEsMjUuODI0MTAxOSBDMTUuMDg0LDI2LjMwNzk5NjEgMTIsMjcuNzcxNjUxNCAxMiwzMi4xNTY2MzA5IEMxMiwzNS40ODAwMzYzIDEzLjgzNiwzNy4zMTM4NDU4IDE1LjM3NywzOC4yNjc2NjYxIEMxNi4wNDksMzguNjg5NzAxNyAxNi42NCwzOC45MDUyMDkyIDE3LjEzOCwzOC45MTAxOTc4IEwyNi4xMjcsMzguOTEwMTk3OCBMMjYuMTI3LDQwLjkwNTYzNzggTDE3LjEyNyw0MC45MDU2Mzc4IEMxNi4yNDMsNDAuODk2NjU4NCAxNS4zLDQwLjU3NzM4OCAxNC4zMTcsMzkuOTU4ODAxNSBDMTIuNzA4LDM4Ljk2NDA3NDcgMTAsMzYuNjIxNDI4MSAxMCwzMi4xNTY2MzA5IEMxMCwyNi44ODc2NzE1IDEzLjUyNiwyNC44NjQyOTUzIDE1LjcxLDI0LjExNzAwMyBDMTUuNzAyLDIzLjkyNDQ0MyAxNS42OTcsMjMuNzMwODg1MyAxNS42OTcsMjMuNTM4MzI1NCBDMTUuNjk3LDE5LjE2MDMyOTkgMTguNjczLDE0LjYyMTcwMTUgMjIuNjIxLDEyLjk3ODQ1NjYgQzI3LjIzMiwxMS4wNTA4NjE1IDMyLjExOSwxMi4wMDY2NzczIDM1LjY4NywxNS41MzM2MTc2IEMzNi43MzQsMTYuNTY3MjU1NSAzNy42MDQsMTcuODA4NDE5MiAzOC4yODUsMTkuMjM2MTU2NiBDMzkuMjAzLDE4LjU1MDcyMjkgNDAuMzA0LDE4LjE3NDU4MjUgNDEuNDU5LDE4LjE3NDU4MjUgQzQzLjg3NCwxOC4xNzQ1ODI1IDQ2LjU4NywxOS45Njg0ODMxIDQ3LjEyMiwyMy44ODk1MjI4IEM1MC41OCwyNC43MjE2MjEzIDU0LDI3LjI3Nzc4IDU0LDMyLjIxNzQ5MTkgQzU0LDM1LjEwNzg4NjggNTIuODY0LDM3LjQ1NjUxOTcgNTAuNzEzLDM5LjAwODk3MjEgTDQ5LjU0MSwzNy4zOTI2NjU2IEM1MS4xNzMsMzYuMjE0MzU4MyA1MiwzNC40NzMzMzY4IDUyLDMyLjIxNzQ5MTkgQzUyLDI3LjIzODg2ODkgNDcuODExLDI1Ljk5OTcwMDcgNDYuMDEsMjUuNjk4Mzg5MiBDNDUuNzQzLDI1LjY1MzQ5MTggNDUuNTA1LDI1LjUwMTgzODQgNDUuMzUxLDI1LjI3OTM0NjggQzQ1LjIwOCwyNS4wNzE4MjEgNDUuMTUsMjQuODE4NDAwMSA0NS4xODYsMjQuNTcwOTY1NiBDNDQuOTMxLDIxLjUzMTkxMDQgNDMuMTQxLDIwLjE3MDAyMjUgNDEuNDU5LDIwLjE3MDAyMjUgQzQwLjQwMiwyMC4xNzAwMjI1IDM5LjQwOSwyMC42ODU4NDM4IDM4LjczNCwyMS41ODU3ODczIEMzOC41MTQsMjEuODc5MTE2OSAzOC4xNTYsMjIuMDI5NzcyNyAzNy43ODYsMjEuOTc0ODk4MSBDMzcuNDIyLDIxLjkyMTAyMTIgMzcuMTE4LDIxLjY3MTU5MTIgMzYuOTkzLDIxLjMyNjM4MDEgQzM2LjM1OSwxOS41NzQzODM3IDM1LjQ0NiwxOC4xMDI3NDY2IDM0LjI4MSwxNi45NTEzNzc3IEMzMi44NTEsMTUuNTM5NjAzOSAyOC45MzMsMTIuNTA2NTM1IDIzLjM5MSwxNC44MTkyNSBDMjAuMTk4LDE2LjE0OTIxMDggMTcuNjk3LDE5Ljk3ODQ2MDMgMTcuNjk3LDIzLjUzODMyNTQgTDE3LjY5NywyMy41MzgzMjU0IFoiIGlkPSJBbWF6b24tQ2xvdWRXYXRjaF9JY29uXzQ4X1NxdWlkIiBmaWxsPSIjRkZGRkZGIi8+JiN4YTsgICAgPC9nPiYjeGE7PC9zdmc+;" parent="1" vertex="1">
                    <mxGeometry x="655.69" y="551" width="58" height="58" as="geometry"/>
                </mxCell>
                <mxCell id="28" value="Amazon Key &#10;Management Services" style="shape=image;verticalLabelPosition=bottom;labelBackgroundColor=none;verticalAlign=top;aspect=fixed;imageAspect=0;image=data:image/svg+xml,PHN2ZyB4bWxucz0iaHR0cDovL3d3dy53My5vcmcvMjAwMC9zdmciIHhtbG5zOnhsaW5rPSJodHRwOi8vd3d3LnczLm9yZy8xOTk5L3hsaW5rIiB3aWR0aD0iNjRweCIgaGVpZ2h0PSI2NHB4IiB2aWV3Qm94PSIwIDAgNjQgNjQiIHZlcnNpb249IjEuMSI+JiN4YTsgICAgPCEtLSBHZW5lcmF0b3I6IFNrZXRjaCA2NCAoOTM1MzcpIC0gaHR0cHM6Ly9za2V0Y2guY29tIC0tPiYjeGE7ICAgIDx0aXRsZT5JY29uLUFyY2hpdGVjdHVyZS80OC9BcmNoX0FXUy1LZXktTWFuYWdlbWVudC1TZXJ2aWNlc180ODwvdGl0bGU+JiN4YTsgICAgPGRlc2M+Q3JlYXRlZCB3aXRoIFNrZXRjaC48L2Rlc2M+JiN4YTsgICAgPGRlZnM+JiN4YTsgICAgICAgIDxsaW5lYXJHcmFkaWVudCB4MT0iMCUiIHkxPSIxMDAlIiB4Mj0iMTAwJSIgeTI9IjAlIiBpZD0ibGluZWFyR3JhZGllbnQtMSI+JiN4YTsgICAgICAgICAgICA8c3RvcCBzdG9wLWNvbG9yPSIjQkQwODE2IiBvZmZzZXQ9IjAlIi8+JiN4YTsgICAgICAgICAgICA8c3RvcCBzdG9wLWNvbG9yPSIjRkY1MjUyIiBvZmZzZXQ9IjEwMCUiLz4mI3hhOyAgICAgICAgPC9saW5lYXJHcmFkaWVudD4mI3hhOyAgICA8L2RlZnM+JiN4YTsgICAgPGcgaWQ9Ikljb24tQXJjaGl0ZWN0dXJlLzQ4L0FyY2hfQVdTLUtleS1NYW5hZ2VtZW50LVNlcnZpY2VzXzQ4IiBzdHJva2U9Im5vbmUiIHN0cm9rZS13aWR0aD0iMSIgZmlsbD0ibm9uZSIgZmlsbC1ydWxlPSJldmVub2RkIj4mI3hhOyAgICAgICAgPGcgaWQ9Ikljb24tQXJjaGl0ZWN0dXJlLUJHLzQ4L1NlY3VyaXR5LUlkZW50aXR5LUNvbXBsaWFuY2UiIGZpbGw9InVybCgjbGluZWFyR3JhZGllbnQtMSkiPiYjeGE7ICAgICAgICAgICAgPHJlY3QgaWQ9IlJlY3RhbmdsZSIgeD0iMCIgeT0iMCIgd2lkdGg9IjY0IiBoZWlnaHQ9IjY0Ii8+JiN4YTsgICAgICAgIDwvZz4mI3hhOyAgICAgICAgPHBhdGggZD0iTTQyLjg0MDc5MDEsNDEuOTk2NzgzMiBMNDguODQwNzkwMSw0MS45OTY3ODMyIEw0OC44NDA3OTAxLDM5Ljk5Njc4MzIgTDQyLjg0MDc5MDEsMzkuOTk2NzgzMiBMNDIuODQwNzkwMSw0MS45OTY3ODMyIFogTTM0Ljg0MDc5MDEsNDEuOTk2NzgzMiBMNDAuODQwNzkwMSw0MS45OTY3ODMyIEw0MC44NDA3OTAxLDM5Ljk5Njc4MzIgTDM0Ljg0MDc5MDEsMzkuOTk2NzgzMiBMMzQuODQwNzkwMSw0MS45OTY3ODMyIFogTTI2Ljg0MDc5MDEsNDEuOTk2NzgzMiBMMzIuODQwNzkwMSw0MS45OTY3ODMyIEwzMi44NDA3OTAxLDM5Ljk5Njc4MzIgTDI2Ljg0MDc5MDEsMzkuOTk2NzgzMiBMMjYuODQwNzkwMSw0MS45OTY3ODMyIFogTTM2Ljg0MDc5MDEsMzUuNDk2NzgzMiBDMzYuODQwNzkwMSwzNC42Njk3ODMyIDM3LjUxMzc5MDEsMzMuOTk2NzgzMiAzOC4zNDA3OTAxLDMzLjk5Njc4MzIgQzM5LjE2ODc5MDEsMzMuOTk2NzgzMiAzOS44NDA3OTAxLDM0LjY2OTc4MzIgMzkuODQwNzkwMSwzNS40OTY3ODMyIEMzOS44NDA3OTAxLDM2LjMyMzc4MzIgMzkuMTY4NzkwMSwzNi45OTY3ODMyIDM4LjM0MDc5MDEsMzYuOTk2NzgzMiBDMzcuNTEzNzkwMSwzNi45OTY3ODMyIDM2Ljg0MDc5MDEsMzYuMzIzNzgzMiAzNi44NDA3OTAxLDM1LjQ5Njc4MzIgTDM2Ljg0MDc5MDEsMzUuNDk2NzgzMiBaIE00MS44NDA3OTAxLDM1LjQ5Njc4MzIgQzQxLjg0MDc5MDEsMzMuNTY2NzgzMiA0MC4yNzA3OTAxLDMxLjk5Njc4MzIgMzguMzQwNzkwMSwzMS45OTY3ODMyIEMzNi40MTE3OTAxLDMxLjk5Njc4MzIgMzQuODQwNzkwMSwzMy41NjY3ODMyIDM0Ljg0MDc5MDEsMzUuNDk2NzgzMiBDMzQuODQwNzkwMSwzNy40MjY3ODMyIDM2LjQxMTc5MDEsMzguOTk2NzgzMiAzOC4zNDA3OTAxLDM4Ljk5Njc4MzIgQzQwLjI3MDc5MDEsMzguOTk2NzgzMiA0MS44NDA3OTAxLDM3LjQyNjc4MzIgNDEuODQwNzkwMSwzNS40OTY3ODMyIEw0MS44NDA3OTAxLDM1LjQ5Njc4MzIgWiBNMzAuMzQwNzkwMSwzNi45OTY3ODMyIEMyOS41MTM3OTAxLDM2Ljk5Njc4MzIgMjguODQwNzkwMSwzNi4zMjM3ODMyIDI4Ljg0MDc5MDEsMzUuNDk2NzgzMiBDMjguODQwNzkwMSwzNC42Njk3ODMyIDI5LjUxMzc5MDEsMzMuOTk2NzgzMiAzMC4zNDA3OTAxLDMzLjk5Njc4MzIgQzMxLjE2ODc5MDEsMzMuOTk2NzgzMiAzMS44NDA3OTAxLDM0LjY2OTc4MzIgMzEuODQwNzkwMSwzNS40OTY3ODMyIEMzMS44NDA3OTAxLDM2LjMyMzc4MzIgMzEuMTY4NzkwMSwzNi45OTY3ODMyIDMwLjM0MDc5MDEsMzYuOTk2NzgzMiBMMzAuMzQwNzkwMSwzNi45OTY3ODMyIFogTTMwLjM0MDc5MDEsMzEuOTk2NzgzMiBDMjguNDExNzkwMSwzMS45OTY3ODMyIDI2Ljg0MDc5MDEsMzMuNTY2NzgzMiAyNi44NDA3OTAxLDM1LjQ5Njc4MzIgQzI2Ljg0MDc5MDEsMzcuNDI2NzgzMiAyOC40MTE3OTAxLDM4Ljk5Njc4MzIgMzAuMzQwNzkwMSwzOC45OTY3ODMyIEMzMi4yNzA3OTAxLDM4Ljk5Njc4MzIgMzMuODQwNzkwMSwzNy40MjY3ODMyIDMzLjg0MDc5MDEsMzUuNDk2NzgzMiBDMzMuODQwNzkwMSwzMy41NjY3ODMyIDMyLjI3MDc5MDEsMzEuOTk2NzgzMiAzMC4zNDA3OTAxLDMxLjk5Njc4MzIgTDMwLjM0MDc5MDEsMzEuOTk2NzgzMiBaIE01My44NDA3OTAxLDI1Ljk5Njc4MzIgTDUzLjg0MDc5MDEsNDUuOTk2NzgzMiBDNTMuODQwNzkwMSw0Ni41NDg3ODMyIDUzLjM5Mzc5MDEsNDYuOTk2NzgzMiA1Mi44NDA3OTAxLDQ2Ljk5Njc4MzIgTDI2Ljg0MDc5MDEsNDYuOTk2NzgzMiBMMjYuODQwNzkwMSw0NC45OTY3ODMyIEw1MS44NDA3OTAxLDQ0Ljk5Njc4MzIgTDUxLjg0MDc5MDEsMjYuOTk2NzgzMiBMMzIuODQwNzkwMSwyNi45OTY3ODMyIEwzMi44NDA3OTAxLDI0Ljk5Njc4MzIgTDUyLjg0MDc5MDEsMjQuOTk2NzgzMiBDNTMuMzkzNzkwMSwyNC45OTY3ODMyIDUzLjg0MDc5MDEsMjUuNDQ0NzgzMiA1My44NDA3OTAxLDI1Ljk5Njc4MzIgTDUzLjg0MDc5MDEsMjUuOTk2NzgzMiBaIE0yMC45MDM3OTAxLDIzLjg5MTc4MzIgQzE5LjgxMjc5MDEsMjMuODkxNzgzMiAxOC45MjQ3OTAxLDIzLjAwMzc4MzIgMTguOTI0NzkwMSwyMS45MTI3ODMyIEMxOC45MjQ3OTAxLDIwLjgyMTc4MzIgMTkuODEyNzkwMSwxOS45MzM3ODMyIDIwLjkwMzc5MDEsMTkuOTMzNzgzMiBDMjEuOTk0NzkwMSwxOS45MzM3ODMyIDIyLjg4MTc5MDEsMjAuODIxNzgzMiAyMi44ODE3OTAxLDIxLjkxMjc4MzIgQzIyLjg4MTc5MDEsMjMuMDAzNzgzMiAyMS45OTQ3OTAxLDIzLjg5MTc4MzIgMjAuOTAzNzkwMSwyMy44OTE3ODMyIEwyMC45MDM3OTAxLDIzLjg5MTc4MzIgWiBNMjAuOTAzNzkwMSwxNy45MzM3ODMyIEMxOC43MTA3OTAxLDE3LjkzMzc4MzIgMTYuOTI0NzkwMSwxOS43MTg3ODMyIDE2LjkyNDc5MDEsMjEuOTEyNzgzMiBDMTYuOTI0NzkwMSwyNC4xMDY3ODMyIDE4LjcxMDc5MDEsMjUuODkxNzgzMiAyMC45MDM3OTAxLDI1Ljg5MTc4MzIgQzIzLjA5Njc5MDEsMjUuODkxNzgzMiAyNC44ODE3OTAxLDI0LjEwNjc4MzIgMjQuODgxNzkwMSwyMS45MTI3ODMyIEMyNC44ODE3OTAxLDE5LjcxODc4MzIgMjMuMDk2NzkwMSwxNy45MzM3ODMyIDIwLjkwMzc5MDEsMTcuOTMzNzgzMiBMMjAuOTAzNzkwMSwxNy45MzM3ODMyIFogTTIzLjUzMzc5MDEsMzAuMDQ1NzgzMiBDMjMuMTIwNzkwMSwzMC4xNzg3ODMyIDIyLjg0MDc5MDEsMzAuNTYyNzgzMiAyMi44NDA3OTAxLDMwLjk5Njc4MzIgTDIyLjg0MDc5MDEsNDkuNTc2NzgzMiBMMjAuOTAxNzkwMSw1MS40NzU3ODMyIEwxOC44NDA3OTAxLDQ4LjY2ODc4MzIgTDE4Ljg0MDc5MDEsNDYuMDM4NzgzMiBDMTguODQwNzkwMSw0NS43NDY3ODMyIDE4LjcxMjc5MDEsNDUuNDY3NzgzMiAxOC40ODk3OTAxLDQ1LjI3Nzc4MzIgTDE2LjM4Mzc5MDEsNDMuNDg1NzgzMiBMMTguNDg5NzkwMSw0MS42OTQ3ODMyIEMxOC43MTI3OTAxLDQxLjUwNDc4MzIgMTguODQwNzkwMSw0MS4yMjU3ODMyIDE4Ljg0MDc5MDEsNDAuOTMyNzgzMiBMMTguODQwNzkwMSwzOS4yMzA3ODMyIEMxOC44NDA3OTAxLDM4LjkzNzc4MzIgMTguNzEyNzkwMSwzOC42NTg3ODMyIDE4LjQ4OTc5MDEsMzguNDY4NzgzMiBMMTYuMzgzNzkwMSwzNi42Nzc3ODMyIEwxOC40ODk3OTAxLDM0Ljg4NTc4MzIgQzE4LjcxMjc5MDEsMzQuNjk1NzgzMiAxOC44NDA3OTAxLDM0LjQxNjc4MzIgMTguODQwNzkwMSwzNC4xMjM3ODMyIEwxOC44NDA3OTAxLDMwLjk5Njc4MzIgQzE4Ljg0MDc5MDEsMzAuNTYwNzgzMiAxOC41NTg3OTAxLDMwLjE3NDc4MzIgMTguMTQyNzkwMSwzMC4wNDM3ODMyIEMxMy43NjI3OTAxLDI4LjY1NTc4MzIgMTEuMjU2NzkwMSwyNC4zOTA3ODMyIDEyLjE4NDc5MDEsMTkuOTAxNzgzMiBDMTIuODU1NzkwMSwxNi42NTU3ODMyIDE1LjM1MDc5MDEsMTQuMDUzNzgzMiAxOC41NDM3OTAxLDEzLjI3MDc4MzIgQzIxLjI2MTc5MDEsMTIuNjAyNzgzMiAyNC4wNTI3OTAxLDEzLjE4NTc4MzIgMjYuMTk1NzkwMSwxNC44NjY3ODMyIEMyOC4zMzc3OTAxLDE2LjU0NTc4MzIgMjkuNTY0NzkwMSwxOS4wNjc3ODMyIDI5LjU2NDc5MDEsMjEuNzgzNzgzMiBDMjkuNTY0NzkwMSwyNS41NTc3ODMyIDI3LjE0MDc5MDEsMjguODc3NzgzMiAyMy41MzM3OTAxLDMwLjA0NTc4MzIgTDIzLjUzMzc5MDEsMzAuMDQ1NzgzMiBaIE0zMS41NjQ3OTAxLDIxLjc4Mzc4MzIgQzMxLjU2NDc5MDEsMTguNDQ5NzgzMiAzMC4wNTc3OTAxLDE1LjM1Mzc4MzIgMjcuNDI5NzkwMSwxMy4yOTI3ODMyIEMyNC44MDE3OTAxLDExLjIzMDc4MzIgMjEuMzkwNzkwMSwxMC41MTM3ODMyIDE4LjA2Njc5MDEsMTEuMzI4NzgzMiBDMTQuMTI5NzkwMSwxMi4yOTM3ODMyIDExLjA1MTc5MDEsMTUuNDk5NzgzMiAxMC4yMjU3OTAxLDE5LjQ5Njc4MzIgQzkuMTU1NzkwMTIsMjQuNjc3NzgzMiAxMS45NzU3OTAxLDI5Ljc5NDc4MzIgMTYuODQwNzkwMSwzMS43MDI3ODMyIEwxNi44NDA3OTAxLDMzLjY2Mjc4MzIgTDE0LjE5Mjc5MDEsMzUuOTE1NzgzMiBDMTMuOTY5NzkwMSwzNi4xMDU3ODMyIDEzLjg0MDc5MDEsMzYuMzg0NzgzMiAxMy44NDA3OTAxLDM2LjY3Nzc4MzIgQzEzLjg0MDc5MDEsMzYuOTcwNzgzMiAxMy45Njk3OTAxLDM3LjI0ODc4MzIgMTQuMTkyNzkwMSwzNy40Mzg3ODMyIEwxNi44NDA3OTAxLDM5LjY5Mjc4MzIgTDE2Ljg0MDc5MDEsNDAuNDcwNzgzMiBMMTQuMTkyNzkwMSw0Mi43MjQ3ODMyIEMxMy45Njk3OTAxLDQyLjkxMzc4MzIgMTMuODQwNzkwMSw0My4xOTI3ODMyIDEzLjg0MDc5MDEsNDMuNDg1NzgzMiBDMTMuODQwNzkwMSw0My43Nzg3ODMyIDEzLjk2OTc5MDEsNDQuMDU3NzgzMiAxNC4xOTI3OTAxLDQ0LjI0Nzc4MzIgTDE2Ljg0MDc5MDEsNDYuNTAwNzgzMiBMMTYuODQwNzkwMSw0OC45OTY3ODMyIEMxNi44NDA3OTAxLDQ5LjIwOTc4MzIgMTYuOTA5NzkwMSw0OS40MTY3ODMyIDE3LjAzNTc5MDEsNDkuNTg4NzgzMiBMMTkuOTcxNzkwMSw1My41ODg3ODMyIEMyMC4xNDI3OTAxLDUzLjgyMTc4MzIgMjAuNDA3NzkwMSw1My45Njk3ODMyIDIwLjY5Njc5MDEsNTMuOTkzNzgzMiBDMjAuNzIzNzkwMSw1My45OTU3ODMyIDIwLjc1MDc5MDEsNTMuOTk2NzgzMiAyMC43Nzc3OTAxLDUzLjk5Njc4MzIgQzIxLjAzODc5MDEsNTMuOTk2NzgzMiAyMS4yODk3OTAxLDUzLjg5NDc4MzIgMjEuNDc2NzkwMSw1My43MTA3ODMyIEwyNC41NDA3OTAxLDUwLjcxMDc4MzIgQzI0LjczMjc5MDEsNTAuNTIyNzgzMiAyNC44NDA3OTAxLDUwLjI2NTc4MzIgMjQuODQwNzkwMSw0OS45OTY3ODMyIEwyNC44NDA3OTAxLDMxLjY5Nzc4MzIgQzI4Ljg5MTc5MDEsMzAuMDc4NzgzMiAzMS41NjQ3OTAxLDI2LjE4MTc4MzIgMzEuNTY0NzkwMSwyMS43ODM3ODMyIEwzMS41NjQ3OTAxLDIxLjc4Mzc4MzIgWiIgaWQ9IkFXUy1LZXktTWFuYWdlbWVudC1TZXJ2aWNlc19JY29uXzQ4X1NxdWlkIiBmaWxsPSIjRkZGRkZGIi8+JiN4YTsgICAgPC9nPiYjeGE7PC9zdmc+;" parent="1" vertex="1">
                    <mxGeometry x="655.69" y="660" width="58" height="58" as="geometry"/>
                </mxCell>
                <mxCell id="29" value="Network&lt;br&gt;Load Balancer" style="sketch=0;outlineConnect=0;fontColor=#232F3E;gradientColor=none;fillColor=#4D27AA;strokeColor=none;dashed=0;verticalLabelPosition=bottom;verticalAlign=top;align=center;html=1;fontSize=12;fontStyle=0;aspect=fixed;pointerEvents=1;shape=mxgraph.aws4.network_load_balancer;labelBackgroundColor=default;" parent="1" vertex="1">
                    <mxGeometry x="295" y="335" width="50" height="50" as="geometry"/>
                </mxCell>
                <mxCell id="30" value="Amazon Opensearch" style="sketch=0;points=[[0,0,0],[0.25,0,0],[0.5,0,0],[0.75,0,0],[1,0,0],[0,1,0],[0.25,1,0],[0.5,1,0],[0.75,1,0],[1,1,0],[0,0.25,0],[0,0.5,0],[0,0.75,0],[1,0.25,0],[1,0.5,0],[1,0.75,0]];outlineConnect=0;fontColor=#232F3E;gradientColor=#945DF2;gradientDirection=north;fillColor=#5A30B5;strokeColor=#ffffff;dashed=0;verticalLabelPosition=bottom;verticalAlign=top;align=center;html=1;fontSize=12;fontStyle=0;aspect=fixed;shape=mxgraph.aws4.resourceIcon;resIcon=mxgraph.aws4.elasticsearch_service;" parent="1" vertex="1">
                    <mxGeometry x="295" y="640" width="50" height="50" as="geometry"/>
                </mxCell>
                <mxCell id="33" value="Amazon ECS" style="sketch=0;points=[[0,0,0],[0.25,0,0],[0.5,0,0],[0.75,0,0],[1,0,0],[0,1,0],[0.25,1,0],[0.5,1,0],[0.75,1,0],[1,1,0],[0,0.25,0],[0,0.5,0],[0,0.75,0],[1,0.25,0],[1,0.5,0],[1,0.75,0]];outlineConnect=0;fontColor=#232F3E;gradientColor=#F78E04;gradientDirection=north;fillColor=#D05C17;strokeColor=#ffffff;dashed=0;verticalLabelPosition=bottom;verticalAlign=top;align=center;html=1;fontSize=12;fontStyle=0;aspect=fixed;shape=mxgraph.aws4.resourceIcon;resIcon=mxgraph.aws4.ecs;" parent="1" vertex="1">
                    <mxGeometry x="295" y="520" width="50" height="50" as="geometry"/>
                </mxCell>
                <mxCell id="35" value="Data nodes" style="outlineConnect=0;fontColor=#232F3E;gradientColor=none;fillColor=#D86613;strokeColor=none;dashed=0;verticalLabelPosition=bottom;verticalAlign=top;align=center;html=1;fontSize=12;fontStyle=0;aspect=fixed;pointerEvents=1;shape=mxgraph.aws4.instances;" parent="1" vertex="1">
                    <mxGeometry x="159" y="635" width="50" height="50" as="geometry"/>
                </mxCell>
                <mxCell id="36" value="Data nodes" style="outlineConnect=0;fontColor=#232F3E;gradientColor=none;fillColor=#D86613;strokeColor=none;dashed=0;verticalLabelPosition=bottom;verticalAlign=top;align=center;html=1;fontSize=12;fontStyle=0;aspect=fixed;pointerEvents=1;shape=mxgraph.aws4.instances;" parent="1" vertex="1">
                    <mxGeometry x="443" y="635" width="50" height="50" as="geometry"/>
                </mxCell>
            </root>
        </mxGraphModel>
    </diagram>
</mxfile>